:version 1.10
:name ASF
:units
  mass 1
  length 1
  angle deg
:documentation
  ASF file generated by Kaydara
:root
  axis xyz
  order  tx ty tz rx ry rz
  position 0 0 0
  orientation 0 0 0
:bonedata
  begin
    id 1
    name RightUpLegDummy
    direction -1 2.30186e-007 8.31532e-007
    length 4.46685
    axis 0 0 0 xyz
  end
  begin
    id 2
    name RightUpLeg
    direction -2.30187e-007 -1 1.24343e-010
    length 16.4045
    axis -3.49089 -0.000906625 0.000286804 xyz
    dof rx ry rz
  end
  begin
    id 3
    name RightLeg
    direction -2.30181e-007 -1 -4.17157e-009
    length 17.5097
    axis 3.68512 0.0193738 -0.131023 xyz
    dof rx ry rz
  end
  begin
    id 4
    name RightFoot
    direction 8.31421e-007 -4.51202e-011 1
    length 6.49508
    axis 4.81691e-005 -0.120479 -0.188788 xyz
    dof rx ry rz
  end
  begin
    id 5
    name RightToes
    direction 0.00124746 -0.014064 0.9999
    length 3.85082
    axis 0.000481921 0.542163 -0.142578 xyz
    dof rx ry rz
  end
  begin
    id 6
    name SpineDummy
    direction 0.0717043 0.9409 -0.331007
    length 10.0032
    axis 0 0 0 xyz
  end
  begin
    id 7
    name Spine
    direction 2.30186e-007 1 4.58806e-011
    length 9.84055
    axis -0.001389 0.000121418 2.40972e-006 xyz
    dof rx ry rz
  end
  begin
    id 8
    name Spine1
    direction 0 0 0
    length 0
    axis -0.001389 0.000121451 1.30017e-006 xyz
    dof rx ry rz
  end
  begin
    id 9
    name HEadDummy
    direction -0.00347485 0.950688 -0.310128
    length 8.00997
    axis -0.001389 0.000121451 1.30017e-006 xyz
  end
  begin
    id 10
    name HEad
    direction -0.0222688 0.980941 0.193023
    length 5.12695
    axis -0.001389 0.000121451 1.30017e-006 xyz
    dof rx ry rz
  end
  begin
    id 11
    name LeftShoulder1Dummy
    direction 0.988871 0.146793 -0.0242004
    length 3.5792
    axis -0.001389 0.000121451 1.30017e-006 xyz
  end
  begin
    id 12
    name LeftShoulder1
    direction 0.993832 0.108932 0.020779
    length 4.16823
    axis -0.001389 0.000121451 1.30017e-006 xyz
    dof rx ry rz
  end
  begin
    id 13
    name LeftArm
    direction 1 3.44807e-006 -8.31404e-007
    length 9.91437
    axis -23.1894 0.134784 0.967509 xyz
    dof rx ry rz
  end
  begin
    id 14
    name LeftForeArm
    direction 1 3.44842e-006 -8.31581e-007
    length 9.08575
    axis -9.91835 -0.06569 -0.177793 xyz
    dof rx ry rz
  end
  begin
    id 15
    name LeftHand
    direction 0.992938 -0.0411636 0.11126
    length 5.32135
    axis -0.00960232 -0.00340091 0.185173 xyz
    dof rx ry rz
  end
  begin
    id 16
    name RightShoulderDummy
    direction -0.988871 0.146793 -0.0241962
    length 3.5792
    axis -0.001389 0.000121451 1.30017e-006 xyz
  end
  begin
    id 17
    name RightShoulder
    direction -0.993832 0.108933 0.0207785
    length 4.16823
    axis 0.215806 0.000203643 -0.0068026 xyz
    dof rx ry rz
  end
  begin
    id 18
    name RightArm
    direction -1 3.90912e-006 8.31284e-007
    length 9.91437
    axis -23.2009 -0.134239 -0.964101 xyz
    dof rx ry rz
  end
  begin
    id 19
    name RightForeArm
    direction -1 3.90882e-006 8.31502e-007
    length 9.08575
    axis -9.92322 0.0658061 0.178867 xyz
    dof rx ry rz
  end
  begin
    id 20
    name RightHand
    direction -0.992843 -0.0414603 0.112003
    length 5.28593
    axis -0.00960638 0.00330671 -0.185228 xyz
    dof rx ry rz
  end
  begin
    id 21
    name LeftUpLegDummy
    direction 1 -2.30186e-007 -8.31532e-007
    length 4.46685
    axis 0 0 0 xyz
  end
  begin
    id 22
    name LeftUpLeg
    direction -2.30187e-007 -1 6.00931e-010
    length 16.4045
    axis -3.48766 0.00143442 -0.000524262 xyz
    dof rx ry rz
  end
  begin
    id 23
    name LeftLeg
    direction -2.30187e-007 -1 1.6669e-009
    length 17.5097
    axis 3.68178 -0.00654042 -0.000285133 xyz
    dof rx ry rz
  end
  begin
    id 24
    name LeftFoot
    direction 8.31532e-007 -4.54478e-011 1
    length 6.49508
    axis 1.87233e-006 4.66016e-005 -8.6538e-006 xyz
    dof rx ry rz
  end
  begin
    id 25
    name LeftToes
    direction 0.00818058 -0.00485161 0.999955
    length 3.85048
    axis 1.06247e-005 4.65869e-005 -8.65513e-006 xyz
    dof rx ry rz
  end
:hierarchy
  begin
    root RightUpLegDummy SpineDummy LeftUpLegDummy
    RightUpLegDummy RightUpLeg
    RightUpLeg RightLeg
    RightLeg RightFoot
    RightFoot RightToes
    SpineDummy Spine
    Spine Spine1
    Spine1 HEadDummy LeftShoulder1Dummy RightShoulderDummy
    HEadDummy HEad
    LeftShoulder1Dummy LeftShoulder1
    LeftShoulder1 LeftArm
    LeftArm LeftForeArm
    LeftForeArm LeftHand
    RightShoulderDummy RightShoulder
    RightShoulder RightArm
    RightArm RightForeArm
    RightForeArm RightHand
    LeftUpLegDummy LeftUpLeg
    LeftUpLeg LeftLeg
    LeftLeg LeftFoot
    LeftFoot LeftToes
  end

:SAMPLES-PER-SECOND 30
:FULLY-SPECIFIED
:DEGREES
112
root  -63.8702 33.1997 10.8608 -158.634 83.9274 -175.419
RightUpLeg  -30.7311 -7.69244 -2.67642
RightLeg  22.3766 1.80445 0.60778
RightFoot  3.83792 0.00987979 0.145776
RightToes  -43.7412 -0.249038 -0.335266
Spine  8.63953 -0.484278 3.01962
Spine1  15.7485 -1.29687 5.15294
HEad  5.64499 13.1743 -6.14036
LeftShoulder1  0 -2.42657e-020 -4.95415e-022
LeftArm  -33.4433 -1.16251 -86.1318
LeftForeArm  53.9993 -20.7582 -3.79273
LeftHand  0.560364 -10.4738 -6.48218
RightShoulder  0 2.42657e-020 1.07489e-018
RightArm  -55.6261 -1.93069 67.3783
RightForeArm  -27.8075 45.6579 10.3022
RightHand  3.78262 15.9814 26.8553
LeftUpLeg  -24.579 10.8793 7.59261
LeftLeg  25.0454 6.84279 2.66536
LeftFoot  -0.550923 -0.00186963 -0.388884
LeftToes  -21.466 8.63562e-007 1.17448e-007
113
root  -63.9551 33.1979 10.9412 -157.043 82.3126 -173.645
RightUpLeg  -29.971 -7.96147 -2.17862
RightLeg  21.5988 0.663961 0.21244
RightFoot  4.00005 0.0154537 0.0370156
RightToes  -43.2904 -0.247373 -0.33322
Spine  8.25442 -0.734708 3.17379
Spine1  14.937 -1.77662 5.3726
HEad  5.68011 13.6045 -5.74625
LeftShoulder1  0 -2.42657e-020 -4.95415e-022
LeftArm  -33.0214 -0.811118 -86.5625
LeftForeArm  53.5267 -21.0732 -3.85735
LeftHand  0.577115 -10.445 -6.682
RightShoulder  0 2.42657e-020 1.07489e-018
RightArm  -59.1704 -0.759907 63.8095
RightForeArm  -28.4604 44.8718 10.0159
RightHand  3.87205 16.0851 27.2886
LeftUpLeg  -24.1824 9.96873 8.58532
LeftLeg  23.6019 5.85565 2.11457
LeftFoot  1.09442 0.00222475 -0.232945
LeftToes  -28.2215 8.63562e-007 1.17448e-007
114
root  -64.0106 33.2162 10.9848 -157.153 81.7914 -173.214
RightUpLeg  -28.9984 -7.11797 -2.26541
RightLeg  20.8759 -0.648655 -0.202454
RightFoot  4.27853 0.0221148 -0.0853219
RightToes  -42.5047 -0.245975 -0.331635
Spine  8.16537 -0.681835 3.00004
Spine1  14.6693 -1.69674 5.17016
HEad  5.33961 13.7325 -5.42708
LeftShoulder1  0 -2.42657e-020 -4.95415e-022
LeftArm  -32.4126 -1.12798 -86.7212
LeftForeArm  53.1437 -21.146 -3.87284
LeftHand  0.60442 -10.6425 -6.85678
RightShoulder  0 2.42657e-020 1.07489e-018
RightArm  -62.651 0.928798 60.4947
RightForeArm  -27.6746 44.434 9.86427
RightHand  3.82027 16.1052 26.9087
LeftUpLeg  -23.4712 13.1821 8.45998
LeftLeg  22.4434 2.19317 0.742077
LeftFoot  1.59978 0.0138604 -0.318344
LeftToes  -28.9945 8.63562e-007 1.17448e-007
115
root  -64.0183 33.2552 10.8852 -159.803 80.5876 -175.51
RightUpLeg  -27.8626 -8.82972 -2.34319
RightLeg  19.8157 -0.214537 -0.0633006
RightFoot  4.60259 0.0200999 -0.0649955
RightToes  -42.7044 -0.244837 -0.330477
Spine  7.90377 -0.936178 2.80358
Spine1  14.1028 -2.21085 4.86046
HEad  5.53119 13.9009 -5.42717
LeftShoulder1  0 -2.42657e-020 -4.95415e-022
LeftArm  -31.9248 -0.91641 -86.9269
LeftForeArm  52.9505 -21.5312 -3.95156
LeftHand  0.622107 -10.644 -7.04523
RightShoulder  0 2.42657e-020 1.07489e-018
RightArm  -65.4314 2.3085 57.5479
RightForeArm  -26.6485 44.6249 9.93526
RightHand  3.64025 15.9105 26.0025
LeftUpLeg  -22.8371 14.7239 7.95337
LeftLeg  21.0203 -0.448972 -0.142663
LeftFoot  2.30839 0.0247695 -0.417669
LeftToes  -29.7025 8.63562e-007 1.17448e-007
116
root  -64.0391 33.3193 10.7842 -162.01 79.8717 -177.306
RightUpLeg  -26.6601 -9.89466 -2.60702
RightLeg  18.5512 0.0151195 0.00333196
RightFoot  5.16711 0.0194162 -0.0527445
RightToes  -42.63 -0.243955 -0.329709
Spine  7.70831 -1.08408 2.40876
Spine1  13.7341 -2.49608 4.18458
HEad  5.50554 14.1989 -5.0495
LeftShoulder1  0 -2.42657e-020 -4.95415e-022
LeftArm  -31.2709 -0.657542 -86.7084
LeftForeArm  52.5166 -22.1517 -4.07954
LeftHand  0.613715 -10.6304 -6.96385
RightShoulder  0 2.42657e-020 1.07489e-018
RightArm  -68.0921 3.81798 55.7319
RightForeArm  -22.847 45.9026 10.411
RightHand  3.59139 16.1968 25.2304
LeftUpLeg  -21.9762 15.2767 7.4768
LeftLeg  19.6212 -1.70875 -0.490254
LeftFoot  2.96302 0.0321644 -0.48497
LeftToes  -29.1147 8.63562e-007 1.17448e-007
117
root  -64.0502 33.3793 10.705 -162.734 79.2221 -177.813
RightUpLeg  -25.5649 -10.4475 -2.72835
RightLeg  17.1242 -0.155423 -0.0372588
RightFoot  5.81637 0.0229683 -0.0745628
RightToes  -42.5405 -0.243322 -0.329296
Spine  7.35395 -1.19418 2.07518
Spine1  13.0688 -2.74685 3.6584
HEad  6.00864 14.4474 -4.90747
LeftShoulder1  0 -2.42657e-020 -4.95415e-022
LeftArm  -30.8518 0.00213491 -86.5966
LeftForeArm  52.3328 -22.781 -4.21002
LeftHand  0.59585 -10.6731 -6.74661
RightShoulder  0 2.42657e-020 1.07489e-018
RightArm  -70.1336 5.06102 54.4525
RightForeArm  -16.5981 48.4005 11.4039
RightHand  3.59629 17.0067 24.0958
LeftUpLeg  -21.2464 14.8195 7.36508
LeftLeg  18.2744 -1.79922 -0.470473
LeftFoot  3.49172 0.0342946 -0.490414
LeftToes  -28.6906 8.63562e-007 1.17448e-007
118
root  -64.0427 33.4228 10.646 -163.141 78.6449 -177.949
RightUpLeg  -24.4316 -10.6398 -2.86795
RightLeg  15.8026 -0.529513 -0.113359
RightFoot  6.355 0.0272446 -0.120244
RightToes  -42.4682 -0.242933 -0.329205
Spine  7.04951 -1.23529 1.7777
Spine1  12.5088 -2.82068 3.09056
HEad  6.48847 14.7493 -4.49124
LeftShoulder1  0 -2.42657e-020 -4.95415e-022
LeftArm  -30.4014 0.651049 -86.4076
LeftForeArm  52.1523 -23.4247 -4.34477
LeftHand  0.585451 -10.7329 -6.60048
RightShoulder  0 2.42657e-020 1.07489e-018
RightArm  -71.6666 6.286 53.8459
RightForeArm  -8.62782 52.4318 13.2301
RightHand  3.27275 17.4147 21.5099
LeftUpLeg  -20.5871 14.5075 7.38437
LeftLeg  17.2731 -2.07653 -0.503935
LeftFoot  3.97181 0.0363421 -0.51191
LeftToes  -29.0219 8.63562e-007 1.17448e-007
119
root  -64.015 33.4529 10.6169 -163.38 77.5469 -177.955
RightUpLeg  -23.3443 -11.3594 -2.82196
RightLeg  14.7219 -0.877392 -0.170485
RightFoot  6.70355 0.0313066 -0.163184
RightToes  -42.5832 -0.242783 -0.329399
Spine  6.81154 -1.31469 1.61433
Spine1  12.0556 -2.93464 2.70717
HEad  6.95882 14.5785 -3.82969
LeftShoulder1  0 -2.42657e-020 -4.95415e-022
LeftArm  -29.4581 1.09998 -86.2055
LeftForeArm  51.6342 -23.9871 -4.4643
LeftHand  0.575354 -10.8221 -6.44251
RightShoulder  0 2.42657e-020 1.07489e-018
RightArm  -72.9685 7.50272 53.7998
RightForeArm  1.77328 57.4395 16.0516
RightHand  3.08128 18.3076 19.3286
LeftUpLeg  -20.3995 13.4802 7.6022
LeftLeg  16.906 -2.17788 -0.513629
LeftFoot  4.17816 0.0364984 -0.518722
LeftToes  -28.8678 8.63562e-007 1.17448e-007
120
root  -63.9884 33.4689 10.5777 -163.558 76.5939 -177.77
RightUpLeg  -22.4187 -12.0967 -2.76623
RightLeg  14.1029 -1.08495 -0.19866
RightFoot  6.93851 0.0341406 -0.187775
RightToes  -42.6143 -0.242865 -0.329843
Spine  6.71005 -1.27232 1.4229
Spine1  11.8631 -2.77081 2.24045
HEad  7.15957 14.1645 -2.89399
LeftShoulder1  0 -2.42657e-020 -4.95415e-022
LeftArm  -28.4076 1.26069 -85.9686
LeftForeArm  51.0869 -24.5523 -4.58556
LeftHand  0.584962 -10.8849 -6.50795
RightShoulder  0 2.42657e-020 1.07489e-018
RightArm  -73.4933 8.92109 54.1184
RightForeArm  10.9746 61.9678 19.4086
RightHand  2.45731 18.0378 15.7664
LeftUpLeg  -20.2096 12.2845 7.8733
LeftLeg  16.8658 -1.93807 -0.45588
LeftFoot  4.18383 0.0337406 -0.492329
LeftToes  -28.7607 8.63562e-007 1.17448e-007
121
root  -63.9748 33.4823 10.5497 -164.103 75.4637 -177.903
RightUpLeg  -21.6593 -13.1103 -2.75107
RightLeg  13.9265 -1.1791 -0.212171
RightFoot  6.96105 0.0355628 -0.191295
RightToes  -42.6781 -0.243174 -0.330502
Spine  6.72138 -1.24744 1.19583
Spine1  11.8739 -2.64468 1.72045
HEad  7.21731 13.6127 -1.8234
LeftShoulder1  0 -2.42657e-020 -4.95415e-022
LeftArm  -27.4236 1.20549 -85.7163
LeftForeArm  50.501 -25.2448 -4.7355
LeftHand  0.602815 -10.8153 -6.73581
RightShoulder  0 2.42657e-020 1.07489e-018
RightArm  -73.6487 10.7215 54.969
RightForeArm  20.1873 65.6331 23.0325
RightHand  2.19714 18.7123 13.6516
LeftUpLeg  -20.3671 11.3844 8.01605
LeftLeg  17.3964 -2.08956 -0.511857
LeftFoot  4.08105 0.0321757 -0.493928
LeftToes  -28.4953 8.63562e-007 1.17448e-007
122
root  -63.986 33.4823 10.5088 -164.67 74.2811 -178.11
RightUpLeg  -21.3376 -14.6398 -2.71316
RightLeg  14.396 -0.784654 -0.147694
RightFoot  6.76372 0.0325442 -0.126845
RightToes  -42.9823 -0.243705 -0.331342
Spine  6.79166 -1.1166 0.971948
Spine1  11.9671 -2.30629 1.2166
HEad  7.45487 12.591 -0.712242
LeftShoulder1  0 -2.42657e-020 -4.95415e-022
LeftArm  -26.063 0.887593 -85.5301
LeftForeArm  49.7427 -25.8435 -4.86699
LeftHand  0.62284 -10.8474 -6.92727
RightShoulder  0 2.42657e-020 1.07489e-018
RightArm  -72.2874 12.1413 55.9088
RightForeArm  29.0658 68.5261 26.8076
RightHand  2.10929 20.4511 12.0277
LeftUpLeg  -20.8368 10.6971 8.04326
LeftLeg  18.3068 -2.47483 -0.647719
LeftFoot  3.85233 0.0311306 -0.510432
LeftToes  -28.2113 8.63562e-007 1.17448e-007
123
root  -64.0705 33.4687 10.4479 -165.3 73.2932 -178.681
RightUpLeg  -21.8274 -16.0087 -2.80538
RightLeg  15.586 -0.395285 -0.0829177
RightFoot  6.37568 0.0292625 -0.0594364
RightToes  -43.4112 -0.244451 -0.333569
Spine  6.80647 -0.886116 0.706449
Spine1  11.93 -1.76984 0.658194
HEad  8.19876 11.3707 0.494202
LeftShoulder1  0 -2.42657e-020 -4.95415e-022
LeftArm  -24.7363 0.419778 -85.5055
LeftForeArm  48.6692 -26.3033 -4.96973
LeftHand  0.633148 -10.7338 -7.10636
RightShoulder  0 2.42657e-020 1.07489e-018
RightArm  -69.5646 13.3416 57.0374
RightForeArm  37.625 70.7847 30.6278
RightHand  2.20132 21.15 12.1248
LeftUpLeg  -21.8599 10.26 7.77782
LeftLeg  19.6022 -2.88583 -0.825068
LeftFoot  3.58375 0.0295495 -0.522808
LeftToes  -28.0113 8.63562e-007 1.17448e-007
124
root  -64.1737 33.4393 10.365 -165.382 71.9934 -178.698
RightUpLeg  -22.5445 -17.1985 -2.7991
RightLeg  17.2726 -0.533272 -0.129054
RightFoot  5.88643 0.0293946 -0.0462923
RightToes  -43.3049 -0.245408 -0.335281
Spine  6.89055 -0.68872 0.535514
Spine1  12.015 -1.27818 0.222252
HEad  9.61649 9.76763 1.85942
LeftShoulder1  0 -2.42657e-020 -4.95415e-022
LeftArm  -23.7091 -0.229149 -85.7756
LeftForeArm  47.4629 -26.7731 -5.07572
LeftHand  0.651433 -10.5418 -7.4272
RightShoulder  0 2.42657e-020 1.07489e-018
RightArm  -64.1786 14.2369 58.1386
RightForeArm  46.2224 70.7347 30.5331
RightHand  1.4633 22.0252 7.88108
LeftUpLeg  -23.211 9.5971 7.69131
LeftLeg  21.3548 -3.4169 -1.09045
LeftFoot  3.08213 0.0270549 -0.522561
LeftToes  -27.5681 8.63562e-007 1.17448e-007
125
root  -64.2907 33.375 10.2111 -165.707 70.9328 -178.741
RightUpLeg  -23.3006 -18.0689 -3.06772
RightLeg  19.4672 -0.740236 -0.210284
RightFoot  5.20513 0.0293334 -0.0315409
RightToes  -43.2431 -0.246826 -0.336824
Spine  7.12691 -0.480709 0.361025
Spine1  12.3642 -0.791323 -0.157749
HEad  11.3672 7.71816 3.48568
LeftShoulder1  0 -2.42657e-020 -4.95415e-022
LeftArm  -23.1431 -1.21263 -86.3802
LeftForeArm  46.3597 -27.0231 -5.13318
LeftHand  0.678224 -10.4159 -7.80575
RightShoulder  0 2.42657e-020 1.07489e-018
RightArm  -57.8808 15.3591 58.9806
RightForeArm  45.723 67.2953 25.0825
RightHand  0.986365 22.9954 5.21779
LeftUpLeg  -24.4556 9.24255 7.45689
LeftLeg  23.4901 -4.0203 -1.44937
LeftFoot  2.32543 0.0234336 -0.50375
LeftToes  -27.3792 8.63562e-007 1.17448e-007
